<?xml version="1.0" standalone="no"?>
<!DOCTYPE svg PUBLIC "-//W3C//DTD SVG 20010904//EN"
 "http://www.w3.org/TR/2001/REC-SVG-20010904/DTD/svg10.dtd">
<svg version="1.0" xmlns="http://www.w3.org/2000/svg"
 width="564.000000pt" height="454.000000pt" viewBox="0 0 564.000000 454.000000"
 preserveAspectRatio="xMidYMid meet">

<g transform="translate(0.000000,454.000000) scale(0.100000,-0.100000)"
fill="#000000" stroke="none">
<path d="M1768 4513 c-16 -15 -14 -21 18 -85 31 -61 37 -68 57 -62 12 3 24 8
27 11 6 6 -68 153 -78 153 -4 0 -15 -7 -24 -17z"/>
<path d="M2806 4311 c-3 -5 -43 -24 -88 -42 -60 -24 -98 -47 -137 -84 -29 -27
-83 -66 -120 -85 -60 -32 -66 -38 -69 -69 -2 -19 4 -62 13 -95 9 -32 18 -78
19 -100 2 -23 8 -52 13 -66 29 -70 22 -153 -16 -208 -12 -17 -21 -53 -25 -99
-8 -92 -51 -213 -76 -213 -18 0 -35 -26 -31 -45 2 -5 -1 -7 -5 -2 -4 4 -17 -2
-29 -13 -12 -11 -88 -49 -169 -85 -81 -35 -150 -65 -152 -68 -3 -2 44 -21 103
-42 60 -21 117 -44 128 -51 11 -8 27 -14 35 -14 9 0 76 -22 150 -48 l135 -49
125 3 c108 2 132 6 181 27 31 14 96 38 145 52 49 15 93 30 98 33 4 2 -29 24
-74 47 -92 48 -123 74 -140 115 -7 16 -19 31 -28 33 -10 3 9 5 40 6 70 1 101
25 145 108 47 89 90 245 63 228 -6 -4 -18 3 -28 15 -10 13 -40 27 -72 35 -45
11 -49 13 -23 14 17 1 34 5 37 10 6 9 -51 21 -99 20 l-30 0 30 -14 c28 -13 25
-13 -55 -14 -52 -1 -103 -7 -132 -18 -43 -15 -48 -15 -72 0 -34 22 -75 79 -92
124 -27 78 -12 175 41 254 21 33 22 39 10 55 -31 40 -8 125 29 111 10 -4 15
-3 11 3 -7 11 127 14 138 4 7 -7 79 -14 140 -13 48 0 79 -9 72 -22 -4 -5 1 -9
9 -9 9 0 16 -5 16 -10 0 -6 11 -15 24 -20 35 -13 45 -64 18 -93 -18 -20 -42
-60 -42 -70 0 -2 16 1 35 7 19 6 35 16 35 23 0 6 14 41 30 78 37 83 37 104 1
169 -16 28 -31 67 -35 87 -4 20 -15 44 -25 53 -16 15 -24 15 -107 -2 l-89 -18
3 38 c4 37 -1 48 -12 29z m-414 -1190 c13 -15 34 -42 47 -60 38 -50 107 -91
162 -98 62 -7 103 10 135 56 16 24 24 30 24 18 0 -27 -24 -79 -54 -114 -35
-42 -74 -49 -128 -25 -44 19 -128 93 -128 113 0 5 -4 7 -10 4 -5 -3 -10 -2
-10 4 0 5 -7 16 -15 25 -19 19 -75 136 -75 156 1 8 7 0 15 -18 8 -19 25 -46
37 -61z"/>
<path d="M2764 3958 c-50 -12 -91 -29 -110 -45 -21 -18 -24 -23 -9 -18 23 7
80 15 144 18 31 2 49 9 62 26 38 46 31 48 -87 19z"/>
<path d="M2730 3791 c0 -6 -9 -8 -20 -6 -11 2 -18 0 -15 -6 4 -5 2 -9 -4 -9
-5 0 -12 6 -14 13 -3 7 -6 5 -6 -5 -1 -13 7 -18 25 -18 21 0 25 -4 21 -20 -4
-16 0 -20 18 -20 17 0 25 6 27 23 2 16 9 22 26 21 32 -1 27 10 -11 24 -40 14
-47 15 -47 3z"/>
<path d="M2310 3771 c0 -11 5 -23 12 -27 8 -5 9 -2 5 9 -6 16 3 22 26 18 5 -1
6 3 2 9 -11 18 -45 11 -45 -9z"/>
<path d="M2966 3775 c4 -8 8 -15 10 -15 2 0 4 7 4 15 0 8 -4 15 -10 15 -5 0
-7 -7 -4 -15z"/>
<path d="M2986 3764 c-5 -13 -9 -14 -20 -5 -12 10 -14 8 -9 -11 4 -19 3 -20
-7 -8 -10 12 -11 12 -5 -5 4 -11 7 -28 7 -37 -1 -25 19 -23 25 2 4 14 14 20
32 20 l26 0 -25 21 c-14 11 -19 18 -13 14 9 -4 11 -1 7 9 -8 20 -10 20 -18 0z"/>
<path d="M2383 3730 c-7 -11 -13 -29 -13 -40 0 -20 1 -20 25 -3 28 21 29 24
13 46 -12 16 -14 16 -25 -3z"/>
<path d="M5442 3678 c-7 -7 -12 -24 -12 -38 0 -14 5 -31 12 -38 7 -7 24 -12
38 -12 14 0 31 5 38 12 7 7 12 24 12 38 0 14 -5 31 -12 38 -7 7 -24 12 -38 12
-14 0 -31 -5 -38 -12z"/>
<path d="M3693 3589 c-29 -18 -31 -23 -21 -45 13 -29 17 -29 57 -6 34 19 36
24 21 53 -13 24 -17 24 -57 -2z"/>
<path d="M1610 3576 c0 -2 8 -10 18 -17 15 -13 16 -12 3 4 -13 16 -21 21 -21
13z"/>
<path d="M4623 3413 c9 -2 25 -2 35 0 9 3 1 5 -18 5 -19 0 -27 -2 -17 -5z"/>
<path d="M4848 3413 c94 -2 250 -2 345 0 94 1 17 3 -173 3 -190 0 -267 -2
-172 -3z"/>
<path d="M3612 3403 c59 -2 158 -2 220 0 62 1 14 3 -107 3 -121 0 -172 -2
-113 -3z"/>
<path d="M3958 3403 c7 -3 16 -2 19 1 4 3 -2 6 -13 5 -11 0 -14 -3 -6 -6z"/>
<path d="M4028 3403 c23 -2 59 -2 80 0 20 2 1 4 -43 4 -44 0 -61 -2 -37 -4z"/>
<path d="M4158 3403 c7 -3 16 -2 19 1 4 3 -2 6 -13 5 -11 0 -14 -3 -6 -6z"/>
<path d="M4198 3403 c7 -3 16 -2 19 1 4 3 -2 6 -13 5 -11 0 -14 -3 -6 -6z"/>
<path d="M5571 3407 c2 -1 13 -9 24 -17 19 -14 19 -14 6 3 -7 9 -18 17 -24 17
-6 0 -8 -1 -6 -3z"/>
<path d="M3431 3376 c-13 -14 -21 -32 -18 -43 4 -17 5 -17 6 1 0 11 11 30 23
43 12 13 19 23 16 23 -2 0 -15 -11 -27 -24z"/>
<path d="M3867 3371 c3 -10 0 -11 -10 -3 -10 8 -19 0 -40 -39 -16 -27 -25 -49
-20 -49 4 0 1 -5 -7 -10 -12 -7 -10 -9 7 -7 18 1 21 6 18 27 -5 24 -5 24 6 -2
14 -37 55 -36 54 2 0 14 2 40 6 57 4 18 3 31 -1 28 -5 -3 -10 -2 -13 2 -2 5
-2 2 0 -6z m-20 -26 c-4 -8 -2 -17 3 -20 5 -3 11 3 13 12 3 10 4 6 4 -9 -1
-21 -4 -24 -14 -16 -9 7 -13 7 -13 0 0 -6 5 -14 10 -17 6 -3 10 -12 10 -18 0
-7 -9 1 -19 17 -16 23 -17 33 -8 47 14 23 21 25 14 4z"/>
<path d="M1670 3372 c0 -7 -15 -12 -35 -12 -19 0 -35 -5 -35 -11 0 -7 11 -9
26 -6 25 5 26 4 21 -37 -6 -39 -5 -39 13 14 10 30 17 57 14 59 -2 2 -4 -1 -4
-7z"/>
<path d="M3412 3285 c0 -16 2 -22 5 -12 2 9 2 23 0 30 -3 6 -5 -1 -5 -18z"/>
<path d="M1690 2923 c-1 -7 -3 -16 -4 -20 -1 -5 -5 -14 -10 -21 -4 -7 -5 -19
-2 -27 2 -7 0 -16 -7 -19 -7 -2 -7 -5 -2 -5 6 -1 9 -25 7 -59 -3 -55 -1 -61
37 -110 41 -51 71 -70 56 -34 -26 62 -57 176 -64 236 -5 39 -10 65 -11 59z"/>
<path d="M550 2903 c1 -5 14 -33 30 -63 17 -30 30 -60 30 -66 0 -24 -42 -64
-66 -64 -43 0 -60 17 -84 80 -12 33 -26 60 -31 60 -19 0 -31 -46 -27 -106 5
-74 28 -107 90 -126 35 -10 44 -20 82 -92 128 -239 160 -302 159 -307 -2 -5
48 -4 55 1 1 1 7 4 12 5 6 1 12 4 15 5 17 8 32 4 48 -14 l18 -21 -11 23 c-6
12 -8 22 -4 22 3 0 1 7 -6 15 -9 11 -16 12 -26 5 -9 -8 -15 -7 -21 5 -8 13
-14 13 -42 4 -45 -16 -50 -4 -8 18 l35 18 -66 158 c-49 119 -62 161 -53 167
10 5 10 13 3 26 -7 14 -6 26 4 44 18 34 17 101 -2 128 -34 48 -135 105 -134
75z m264 -664 c-3 -5 -9 -7 -14 -4 -5 3 -11 1 -14 -4 -9 -14 -39 -7 -44 10 -3
11 -1 11 7 -1 10 -14 16 -7 12 14 -1 5 5 4 13 -4 15 -12 21 -7 17 14 -1 5 5 4
13 -3 9 -7 13 -17 10 -22z m40 13 c3 -5 -1 -9 -9 -9 -8 0 -12 4 -9 9 3 4 7 8
9 8 2 0 6 -4 9 -8z"/>
<path d="M1467 2823 c-13 -3 -16 -11 -12 -26 6 -22 6 -22 -10 -3 -12 17 -17
18 -28 6 -7 -8 -8 -10 -1 -7 7 4 15 0 18 -9 4 -11 2 -15 -7 -11 -8 3 -14 -3
-15 -16 -1 -17 1 -19 8 -7 5 8 10 12 10 7 0 -4 13 5 30 19 16 15 27 30 25 35
-3 4 1 10 7 12 16 7 0 6 -25 0z"/>
<path d="M3250 2644 c-25 -41 -49 -84 -55 -95 -5 -10 -13 -19 -18 -19 -4 0 -5
-4 -2 -10 3 -5 0 -7 -8 -4 -8 3 -18 15 -22 27 -5 14 -14 -34 -25 -130 -10 -84
-21 -156 -23 -160 -6 -10 -59 -9 -75 1 -8 5 -10 1 -5 -10 4 -10 2 -15 -3 -11
-6 3 -9 -8 -7 -30 3 -45 12 -56 11 -14 -1 17 1 34 4 37 4 3 6 -11 6 -31 0 -49
7 -52 28 -16 10 17 21 31 24 31 4 0 12 -24 19 -52 17 -66 64 -181 93 -228 12
-19 22 -39 23 -45 0 -5 7 -9 14 -7 7 1 10 -1 7 -6 -3 -5 8 -24 24 -43 27 -32
29 -32 24 -9 -9 46 -4 165 10 215 8 28 17 86 21 130 4 47 17 105 31 140 22 55
23 61 7 70 -43 25 -72 68 -71 106 0 36 21 60 32 38 2 -5 3 -4 2 3 -2 7 -8 12
-13 11 -5 -1 -10 4 -10 12 0 7 9 13 19 12 10 -1 18 -6 18 -11 0 -5 3 -6 6 -3
4 4 1 13 -5 21 -7 9 -10 24 -6 37 5 13 3 19 -3 15 -6 -4 -8 2 -5 14 6 24 -5
90 -15 90 -4 -1 -27 -35 -52 -76z m63 -64 c3 -11 1 -18 -4 -14 -5 3 -9 12 -9
20 0 20 7 17 13 -6z m-41 -735 c3 -13 2 -22 -2 -20 -4 3 -10 16 -12 30 -3 13
-2 22 2 20 4 -3 10 -16 12 -30z"/>
<path d="M1591 2624 c0 -11 3 -14 6 -6 3 7 2 16 -1 19 -3 4 -6 -2 -5 -13z"/>
<path d="M1600 2540 c-1 -36 -4 -82 -5 -102 -2 -21 0 -40 5 -43 4 -3 6 5 2 17
-3 11 -1 19 4 16 12 -8 16 98 5 142 -8 32 -9 29 -11 -30z"/>
<path d="M2170 2502 l0 -92 158 0 c163 0 349 -6 582 -20 74 -4 136 -6 137 -6
1 1 3 37 5 81 l3 80 -60 6 c-130 15 -372 29 -593 35 l-232 7 0 -91z m548 37
c2 -5 11 -5 22 1 19 10 138 12 176 3 13 -3 29 -21 40 -46 l19 -42 5 40 c4 32
10 41 28 43 21 3 22 0 22 -62 l0 -66 -38 0 c-35 0 -40 4 -59 43 l-20 42 -8
-44 -7 -43 -82 5 c-44 3 -160 7 -256 10 -260 7 -325 11 -322 20 1 4 2 32 2 63
l0 56 238 -7 c130 -3 238 -10 240 -16z"/>
<path d="M2284 2495 c0 -23 4 -26 31 -23 22 2 31 9 33 26 3 19 -1 22 -30 22
-30 0 -34 -3 -34 -25z"/>
<path d="M2438 2513 c7 -3 16 -2 19 1 4 3 -2 6 -13 5 -11 0 -14 -3 -6 -6z"/>
<path d="M2666 2511 c-4 -7 -5 -15 -2 -18 9 -9 19 4 14 18 -4 11 -6 11 -12 0z"/>
<path d="M2480 2493 c0 -7 -12 -14 -27 -14 -41 -2 73 -17 132 -17 37 -1 45 2
30 8 -11 5 -32 9 -47 9 -15 1 -31 7 -35 14 -11 16 -53 17 -53 0z"/>
<path d="M2608 2503 c7 -3 16 -2 19 1 4 3 -2 6 -13 5 -11 0 -14 -3 -6 -6z"/>
<path d="M2767 2504 c-4 -4 -7 -16 -7 -26 0 -14 8 -18 36 -18 31 0 35 3 32 23
-2 15 -11 23 -28 25 -14 2 -29 0 -33 -4z"/>
<path d="M1680 2489 c0 -28 12 -101 26 -162 34 -143 36 -267 6 -327 -15 -31
-16 -38 -4 -28 27 22 105 149 157 255 28 56 54 100 60 99 5 -1 15 -45 21 -97
6 -52 16 -103 22 -115 16 -29 117 -121 190 -172 l61 -42 -35 57 c-38 63 -71
146 -76 189 -3 25 3 32 47 56 28 14 81 33 119 40 l68 14 -77 12 c-107 17 -211
67 -288 140 -84 79 -157 137 -157 124 0 -6 5 -23 10 -38 6 -15 9 -29 6 -31 -2
-3 -35 14 -73 36 -38 23 -72 41 -76 41 -4 0 -7 -23 -7 -51z"/>
<path d="M55 2390 c-3 -6 1 -7 9 -4 18 7 21 14 7 14 -6 0 -13 -4 -16 -10z"/>
<path d="M3412 2336 c-25 -36 -66 -136 -59 -143 3 -2 19 19 36 46 17 28 35 51
41 51 6 0 10 -28 10 -66 0 -66 11 -99 39 -121 30 -23 30 -13 0 16 -28 28 -29
33 -30 123 -1 123 -7 138 -37 94z"/>
<path d="M734 2189 c1 -7 9 -13 18 -15 11 -1 15 3 11 13 -4 11 -8 12 -13 3 -6
-9 -9 -9 -13 -1 -4 8 -5 8 -3 0z"/>
<path d="M3677 2083 c18 -2 50 -2 70 0 21 2 7 4 -32 4 -38 0 -55 -2 -38 -4z"/>
<path d="M2217 1869 c4 -13 8 -18 11 -10 2 7 -1 18 -6 23 -8 8 -9 4 -5 -13z"/>
<path d="M2230 1827 c8 -7 21 -19 29 -27 11 -13 12 -12 3 6 -7 12 -19 24 -29
28 -16 5 -16 4 -3 -7z"/>
<path d="M2273 1810 c14 -40 90 -91 192 -132 72 -28 127 -39 66 -13 -45 20
-149 83 -184 112 -34 27 -48 29 -41 6 5 -15 4 -15 -4 -3 -6 8 -9 17 -7 21 3 3
-4 14 -15 24 -19 17 -19 17 -7 -15z m68 -47 c13 -16 12 -17 -3 -4 -17 13 -22
21 -14 21 2 0 10 -8 17 -17z"/>
<path d="M1111 1794 c0 -11 3 -14 6 -6 3 7 2 16 -1 19 -3 4 -6 -2 -5 -13z"/>
<path d="M2884 1670 c-23 -16 -67 -44 -99 -62 -69 -39 -81 -67 -28 -62 37 3
134 46 151 67 9 12 26 87 19 87 -1 0 -21 -13 -43 -30z m-127 -104 c0 -8 -6
-12 -15 -9 -11 5 -11 7 0 14 7 5 13 9 14 9 0 0 1 -6 1 -14z"/>
<path d="M2116 1680 c5 -8 9 -22 8 -30 -4 -40 -7 -43 -14 -20 -6 17 -8 19 -9
7 -1 -10 6 -29 15 -42 l16 -25 -103 -1 c-57 -1 -288 -2 -513 -3 l-410 -1 -8
-32 c-14 -55 -38 -63 -176 -61 -66 1 -123 0 -124 -2 -2 -3 1 -216 8 -475 9
-385 16 -528 18 -362 0 15 2 27 5 28 4 0 14 2 24 4 9 2 15 -1 11 -6 -3 -5 -10
-7 -15 -4 -5 4 -6 -2 -2 -11 4 -12 8 -14 11 -5 3 9 8 9 21 -3 15 -14 17 -13
18 12 2 24 1 25 -8 7 l-9 -20 3 20 c3 26 20 22 29 -7 5 -20 6 -21 8 -3 1 15 3
16 7 5 8 -19 33 -44 33 -32 0 5 7 9 15 9 8 0 15 -5 15 -11 0 -6 7 0 16 12 9
13 13 31 9 40 -5 13 -4 14 6 5 9 -9 10 -18 1 -37 -9 -20 -8 -24 6 -21 9 1 24
-4 32 -11 14 -11 16 -10 17 9 3 29 -17 40 -34 19 -13 -15 -13 -15 -4 4 6 12 7
25 3 29 -4 5 7 -1 25 -14 22 -15 30 -27 27 -39 -5 -13 -4 -14 4 -4 12 18 21
17 38 -5 14 -17 14 -16 4 4 -6 13 -8 23 -4 23 4 0 -1 10 -12 23 l-19 22 26
-23 c14 -12 28 -20 31 -17 2 3 5 -2 5 -10 0 -8 -4 -12 -9 -9 -4 3 -5 -2 -1
-11 4 -12 8 -13 13 -5 11 18 20 17 31 -3 11 -18 29 -14 29 6 0 7 -4 6 -10 -3
-5 -8 -10 -10 -11 -5 0 6 -2 18 -4 28 -3 18 -3 18 16 1 21 -19 27 -6 7 15 -11
11 -10 13 0 7 6 -4 19 -20 27 -36 10 -20 21 -28 35 -25 11 2 22 -1 25 -6 8
-12 25 -2 25 14 0 8 -3 8 -9 -2 -6 -9 -11 -10 -15 -2 -4 6 -12 9 -17 6 -5 -4
-9 -1 -9 5 0 7 8 9 22 4 21 -6 22 -5 8 12 -13 17 -12 17 9 -1 21 -17 24 -18
18 -2 -10 27 1 20 17 -12 9 -16 12 -32 8 -36 -4 -5 -1 -5 6 -1 7 4 10 12 7 17
-4 5 -1 9 4 9 6 0 11 -5 11 -12 0 -6 3 -8 7 -4 5 4 1 13 -7 19 -8 7 -24 24
-35 37 -18 23 -17 22 11 -3 17 -15 33 -25 37 -22 4 3 5 2 2 -1 -10 -14 16 -43
35 -39 11 2 20 -1 20 -7 0 -6 2 -9 5 -6 3 3 2 13 -1 22 -5 14 -9 15 -16 4 -8
-10 -9 -10 -5 2 2 8 0 24 -5 35 -8 18 -8 19 5 3 8 -10 17 -14 21 -10 4 4 7 2
5 -3 -1 -6 3 -23 9 -38 13 -30 32 -28 32 4 0 13 6 18 20 16 29 -5 62 -35 54
-49 -4 -6 -3 -8 3 -5 6 4 9 19 7 34 -2 16 -1 20 2 10 3 -9 10 -14 16 -11 6 4
8 -2 4 -17 -3 -13 -3 -18 0 -11 5 10 10 9 26 -5 11 -9 19 -13 18 -8 -5 24 1
27 15 9 15 -19 15 -19 8 1 -6 18 -5 18 10 6 9 -7 14 -18 10 -25 -3 -6 -2 -7 2
-3 9 7 13 23 17 59 2 13 5 14 15 6 15 -12 18 -22 4 -14 -5 3 -9 -9 -9 -27 0
-17 -6 -60 -12 -95 l-13 -62 -417 0 c-467 0 -453 -2 -470 70 -7 33 -8 33 -9 7
-1 -19 9 -38 28 -58 l29 -29 422 0 422 0 -6 -23 c-12 -42 -30 -292 -23 -319
l7 -28 264 0 263 0 47 168 c137 492 170 607 172 611 8 10 92 12 98 2 23 -37
167 -562 197 -718 l12 -63 289 0 290 0 -7 55 c-22 181 -124 544 -222 797 -30
78 -55 157 -55 173 2 36 -3 44 -45 74 -18 12 -33 30 -34 39 0 13 -3 12 -11 -4
-27 -57 -348 -99 -571 -75 -128 14 -137 17 -137 43 0 19 4 20 53 15 137 -16
251 -19 362 -8 209 21 197 27 -55 26 -135 0 -271 4 -302 8 l-58 8 0 55 0 55
83 -7 c82 -7 82 -7 64 14 -10 11 -45 32 -77 48 l-59 28 -3 76 -3 76 60 -20
c82 -28 327 -29 424 -2 69 19 155 59 166 77 4 6 -11 1 -33 -10 -122 -62 -308
-80 -435 -42 -71 21 -177 74 -234 117 -18 14 -35 24 -38 24 -3 0 -17 12 -32
27 -14 16 -21 21 -17 13z m44 -46 c0 5 7 3 15 -4 8 -7 15 -20 14 -29 0 -11 -3
-9 -9 7 -5 12 -12 22 -15 22 -9 0 1 -38 15 -57 14 -16 14 -17 -2 -4 -10 7 -18
10 -18 6 0 -5 -9 0 -20 10 -13 12 -17 23 -11 34 5 9 6 23 4 31 -3 9 1 7 11 -5
8 -11 16 -16 16 -11z m-1249 -881 c13 -16 12 -17 -3 -4 -10 7 -18 15 -18 17 0
8 8 3 21 -13z m160 -20 c13 -16 12 -17 -3 -4 -10 7 -18 15 -18 17 0 8 8 3 21
-13z m-16 -23 c10 -11 16 -20 13 -20 -3 0 -13 9 -23 20 -10 11 -16 20 -13 20
3 0 13 -9 23 -20z m505 16 c0 -2 -8 -10 -17 -17 -16 -13 -17 -12 -4 4 13 16
21 21 21 13z m-595 -26 c10 -11 16 -20 13 -20 -3 0 -13 9 -23 20 -10 11 -16
20 -13 20 3 0 13 -9 23 -20z m225 -25 c13 -14 21 -25 18 -25 -2 0 -15 11 -28
25 -13 14 -21 25 -18 25 2 0 15 -11 28 -25z m-233 -26 c2 -11 -1 -18 -6 -14
-6 3 -9 14 -8 25 2 23 10 17 14 -11z m204 14 c13 -16 12 -17 -3 -4 -10 7 -18
15 -18 17 0 8 8 3 21 -13z m540 0 c13 -16 12 -17 -3 -4 -17 13 -22 21 -14 21
2 0 10 -8 17 -17z m-698 -6 c-2 -4 -3 -13 -3 -19 0 -10 -3 -9 -9 1 -7 11 -9
11 -14 0 -3 -8 -5 -4 -4 7 1 14 7 21 17 19 8 -1 14 -5 13 -8z m117 -31 c0 -6
-7 -1 -15 10 -8 10 -15 23 -15 28 0 6 7 1 15 -10 8 -10 15 -23 15 -28z m280
19 c13 -14 21 -25 18 -25 -2 0 -15 11 -28 25 -13 14 -21 25 -18 25 2 0 15 -11
28 -25z m81 8 c13 -16 12 -17 -3 -4 -17 13 -22 21 -14 21 2 0 10 -8 17 -17z
m79 -8 c13 -14 21 -25 18 -25 -2 0 -15 11 -28 25 -13 14 -21 25 -18 25 2 0 15
-11 28 -25z m-284 -30 c9 -39 0 -30 -15 15 -6 19 -7 30 -2 25 5 -6 13 -23 17
-40z m-89 3 c-3 -7 -5 -2 -5 12 0 14 2 19 5 13 2 -7 2 -19 0 -25z m339 14 c-3
-3 0 -12 6 -21 10 -13 10 -14 -2 -4 -16 15 -23 46 -8 37 5 -3 7 -9 4 -12z
m-456 -12 c0 -5 -2 -10 -4 -10 -3 0 -8 5 -11 10 -3 6 -1 10 4 10 6 0 11 -4 11
-10z m367 -42 c-3 -7 -5 -2 -5 12 0 14 2 19 5 13 2 -7 2 -19 0 -25z m71 -9
c-3 -20 -5 -19 -9 9 -3 20 -2 29 4 23 5 -5 7 -19 5 -32z m73 24 c13 -16 12
-17 -3 -4 -17 13 -22 21 -14 21 2 0 10 -8 17 -17z m65 -1 c5 -45 6 -46 14 -22
7 23 8 23 9 3 1 -28 -17 -40 -26 -16 -3 10 -12 26 -20 35 -13 15 -13 16 4 14
10 -2 19 -8 19 -14z m41 -34 c-3 -7 -5 -2 -5 12 0 14 2 19 5 13 2 -7 2 -19 0
-25z m33 -3 c0 -8 -2 -15 -4 -15 -2 0 -6 7 -10 15 -3 8 -1 15 4 15 6 0 10 -7
10 -15z"/>
<path d="M2137 1616 c-3 -8 0 -20 8 -26 12 -10 13 -8 10 10 -6 29 -11 34 -18
16z"/>
<path d="M3790 1599 c0 -5 5 -7 10 -4 6 3 10 8 10 11 0 2 -4 4 -10 4 -5 0 -10
-5 -10 -11z"/>
<path d="M3688 1564 c-33 -23 -36 -29 -27 -51 12 -33 -13 -75 -43 -71 -16 2
-24 -7 -38 -44 -18 -47 -18 -48 1 -48 28 0 27 -64 -3 -84 -19 -13 -20 -20 -12
-58 8 -37 13 -43 37 -46 25 -3 28 -6 22 -32 -6 -28 -5 -29 63 -49 85 -26 85
-26 72 -1 -13 24 -14 24 40 5 42 -15 44 -15 82 11 21 15 35 30 31 33 -4 3 -16
16 -26 28 -19 21 -18 22 12 37 16 9 41 16 54 16 19 0 26 9 39 49 15 48 15 49
-7 59 -17 8 -21 16 -17 41 2 18 12 33 23 36 20 7 23 23 13 73 -5 24 -13 32
-35 37 -24 5 -28 11 -23 29 4 19 -1 24 -45 38 -43 14 -51 14 -51 2 0 -8 -5
-14 -11 -14 -5 0 -7 -4 -4 -10 11 -17 -7 -11 -21 8 -12 15 -13 13 -4 -13 9
-26 8 -28 -3 -13 -8 10 -17 15 -21 11 -4 -4 -4 0 -1 8 4 11 0 18 -12 22 -10 2
-25 8 -33 11 -8 3 -31 -5 -52 -20z m132 -181 c0 -36 -21 -90 -40 -108 -20 -18
-20 -17 -20 21 0 39 31 104 50 104 5 0 10 -8 10 -17z"/>
<path d="M4500 1535 c-20 -25 -8 -50 25 -50 21 0 31 5 33 18 4 21 -14 47 -33
47 -7 0 -18 -7 -25 -15z"/>
<path d="M2975 1480 c-19 -31 -165 -82 -299 -105 -49 -8 -91 -17 -93 -19 -2
-2 31 -5 74 -6 105 -2 102 -2 97 -15 -12 -29 25 -38 128 -32 56 4 105 10 110
15 4 4 -6 27 -22 49 l-31 42 26 40 c14 23 23 41 21 41 -3 0 -8 -5 -11 -10z"/>
<path d="M2730 1325 c0 -8 4 -15 10 -15 5 0 7 7 4 15 -4 8 -8 15 -10 15 -2 0
-4 -7 -4 -15z"/>
<path d="M391 1136 c-17 -20 -2 -46 25 -46 29 0 41 24 24 45 -16 19 -34 19
-49 1z"/>
<path d="M4231 1104 c0 -11 3 -14 6 -6 3 7 2 16 -1 19 -3 4 -6 -2 -5 -13z"/>
<path d="M5242 1060 c0 -14 2 -19 5 -12 2 6 2 18 0 25 -3 6 -5 1 -5 -13z"/>
<path d="M4438 1058 c16 -16 16 -33 0 -21 -21 15 -43 9 -45 -12 -1 -11 -5 -50
-8 -88 l-5 -67 353 2 c254 2 351 6 350 14 -1 6 -3 48 -4 93 -1 72 -3 79 -16
64 -12 -15 -14 -15 -10 -2 3 9 -1 16 -8 16 -7 0 -11 -7 -8 -16 4 -14 3 -14 -9
1 -13 15 -15 15 -27 0 -10 -14 -11 -15 -7 -1 2 9 -2 16 -9 16 -7 0 -11 -7 -8
-16 4 -14 3 -14 -9 1 -13 15 -15 15 -27 0 -10 -14 -11 -15 -7 -1 2 9 -2 16 -9
16 -7 0 -11 -7 -9 -16 4 -14 3 -13 -7 1 -12 15 -14 15 -27 0 -12 -15 -13 -15
-9 -1 3 9 -1 16 -8 16 -7 0 -11 -7 -8 -16 3 -9 -5 -5 -17 9 -12 14 -19 19 -15
13 9 -19 -5 -39 -16 -22 -7 11 -9 11 -9 1 0 -7 -4 -11 -9 -7 -17 10 -32 -30
-18 -45 10 -12 9 -12 -5 -1 -10 7 -15 18 -11 25 5 8 3 8 -8 -1 -8 -6 -18 -13
-24 -15 -5 -1 -9 -6 -8 -10 2 -4 -5 -4 -14 -1 -10 4 -14 2 -10 -4 3 -5 0 -10
-8 -10 -13 0 -19 18 -18 54 1 7 -3 10 -8 7 -8 -5 -13 10 -10 29 1 5 -3 6 -8 2
-6 -3 -7 -13 -4 -23 6 -14 4 -15 -8 -5 -12 10 -18 10 -29 0 -10 -10 -12 -9 -7
5 3 10 2 20 -4 23 -5 4 -9 3 -8 -2 3 -20 -2 -34 -11 -28 -6 4 -8 10 -5 15 3 5
1 11 -4 15 -6 3 -8 -3 -6 -15 2 -11 -1 -20 -6 -20 -6 0 -6 -9 1 -22 10 -21 10
-22 -4 -5 -8 11 -12 26 -10 35 5 14 4 14 -6 -1 -6 -9 -8 -23 -4 -30 5 -9 4 -9
-5 -1 -8 8 -9 18 -2 37 15 38 4 34 -14 -5 -8 -18 -13 -26 -11 -16 3 9 -5 24
-16 35 -14 11 -18 13 -13 3 5 -8 11 -24 12 -35 2 -14 -3 -10 -17 13 -11 17
-23 32 -27 32 -4 0 -2 -5 5 -12z m-13 -33 c-5 15 -3 17 6 8 17 -17 1 -37 -17
-22 -8 6 -14 16 -14 22 0 6 7 2 16 -9 15 -19 16 -19 9 1z m215 -5 c0 7 3 11 6
7 3 -3 3 -11 -2 -18 -5 -9 -11 -7 -22 7 -14 18 -14 18 -9 -5 4 -17 3 -21 -5
-13 -6 6 -7 19 -4 29 7 17 8 17 22 -1 9 -13 14 -15 14 -6z m209 -8 c0 -14 -2
-13 -9 3 -6 14 -9 16 -10 5 -2 -8 -2 -19 -1 -24 1 -5 -5 -4 -13 4 -9 7 -16 18
-16 24 0 7 4 6 9 -2 7 -11 9 -10 15 3 7 20 26 10 25 -13z m60 0 c0 -14 -2 -13
-9 3 -6 14 -9 16 -10 5 -2 -8 -2 -19 -1 -24 1 -5 -5 -4 -13 4 -9 7 -16 18 -16
24 0 7 4 6 9 -2 7 -11 9 -10 15 3 7 20 26 10 25 -13z m60 0 c0 -14 -2 -13 -9
3 -6 14 -9 16 -10 5 -2 -8 -2 -19 -1 -24 1 -5 -5 -4 -13 4 -9 7 -16 18 -16 24
0 7 4 6 9 -2 7 -11 9 -10 15 3 7 20 26 10 25 -13z m60 0 c0 -14 -2 -13 -9 3
-6 14 -9 16 -10 5 -2 -8 -2 -19 -1 -24 1 -5 -5 -4 -13 4 -9 7 -16 18 -16 24 0
7 4 6 9 -2 7 -11 9 -10 15 3 7 20 26 10 25 -13z m-447 9 c8 11 9 11 6 1 -4
-16 -22 -18 -24 -3 -2 8 -1 7 3 0 4 -8 8 -7 15 2z m211 -11 c3 -11 1 -18 -4
-14 -5 3 -9 12 -9 20 0 20 7 17 13 -6z m268 11 c6 10 8 7 6 -8 -1 -17 -4 -19
-14 -11 -7 6 -13 16 -12 22 0 6 3 5 6 -3 5 -11 7 -11 14 0z"/>
<path d="M4241 846 c0 -31 4 -54 9 -51 5 3 5 -7 1 -23 -11 -38 8 -83 47 -110
29 -21 37 -22 442 -22 445 0 451 1 479 54 15 27 21 136 9 136 -5 0 -7 -4 -3
-9 3 -5 1 -12 -5 -16 -6 -4 -8 -12 -4 -18 3 -7 -4 -1 -15 12 -14 15 -21 18
-21 9 0 -8 6 -20 13 -28 10 -12 9 -12 -5 -1 -10 7 -18 23 -19 35 0 20 -1 20
-8 1 -5 -11 -6 -24 -3 -30 3 -5 2 -7 -3 -3 -4 4 -15 2 -24 -5 -14 -10 -14 -10
-4 3 8 10 9 21 3 30 -8 13 -10 13 -10 -1 0 -9 -8 -23 -17 -30 -15 -11 -16 -11
-5 1 6 8 12 23 11 34 0 18 -2 18 -10 -4 -10 -23 -11 -24 -24 -7 -10 13 -14 15
-18 5 -3 -8 -6 -5 -7 7 l-1 20 -9 -20 c-7 -15 -9 -16 -9 -4 -1 9 -9 23 -18 30
-15 11 -16 11 -5 -1 6 -8 12 -21 12 -30 0 -12 -2 -12 -9 -1 -7 11 -9 11 -14 0
-4 -9 -6 -7 -7 6 l-1 20 -9 -20 c-7 -15 -9 -16 -9 -4 -1 9 -9 23 -18 30 -15
11 -16 11 -5 -1 6 -8 12 -21 12 -30 0 -12 -2 -12 -9 -1 -7 11 -9 11 -14 0 -4
-9 -6 -7 -7 6 l-1 20 -9 -20 c-7 -15 -9 -16 -9 -4 -1 9 -9 23 -18 30 -15 11
-16 11 -5 -1 6 -8 12 -21 12 -30 0 -12 -2 -12 -9 -1 -7 11 -9 11 -14 0 -4 -9
-6 -7 -7 6 l-1 20 -9 -20 c-7 -15 -9 -16 -9 -4 -1 9 -9 23 -18 30 -15 11 -16
11 -5 -1 6 -8 12 -21 12 -30 0 -12 -2 -12 -9 -1 -7 11 -9 11 -14 0 -4 -9 -6
-7 -7 6 l-1 20 -9 -20 c-7 -15 -9 -16 -9 -4 -1 9 -9 23 -18 30 -15 11 -16 11
-5 -1 6 -8 12 -21 12 -30 0 -12 -2 -12 -9 -1 -7 11 -9 11 -14 0 -4 -9 -6 -7
-7 6 l-1 20 -9 -20 c-7 -15 -9 -16 -9 -4 -1 9 -9 23 -18 30 -15 11 -16 11 -5
-1 6 -8 12 -21 12 -30 0 -12 -2 -12 -9 -1 -7 11 -9 11 -14 0 -4 -9 -6 -7 -7 6
l-1 20 -9 -20 c-7 -15 -9 -16 -9 -4 -1 9 -9 23 -18 30 -15 11 -16 11 -5 -1 6
-8 12 -21 12 -30 0 -12 -2 -12 -9 -1 -7 11 -9 11 -14 0 -4 -9 -6 -7 -7 6 l-1
20 -9 -20 c-7 -15 -9 -16 -9 -4 -1 9 -9 23 -18 30 -15 11 -16 11 -5 -1 6 -8
12 -21 12 -29 0 -13 -2 -13 -9 -2 -7 11 -9 11 -14 0 -4 -9 -6 -7 -7 6 l-1 20
-9 -20 c-7 -15 -9 -16 -9 -4 -1 9 -9 23 -18 30 -15 11 -16 11 -5 -1 6 -8 12
-21 11 -29 0 -12 -2 -13 -6 -2 -5 11 -7 11 -14 0 -7 -11 -9 -9 -10 6 l0 20 -9
-20 c-7 -15 -9 -16 -9 -4 -1 9 -9 23 -18 30 -15 11 -16 11 -5 -1 6 -8 12 -21
12 -29 0 -13 -2 -13 -9 -2 -7 11 -9 11 -14 0 -4 -9 -6 -7 -7 6 l-1 20 -9 -20
c-7 -15 -9 -16 -9 -4 -1 9 -9 23 -18 30 -15 11 -16 11 -5 -1 6 -8 12 -21 12
-29 0 -11 -4 -10 -15 5 -15 18 -15 18 -8 0 4 -14 3 -17 -6 -12 -9 6 -10 0 -6
-21 5 -25 4 -25 -11 7 -9 19 -17 38 -16 41 0 3 -6 6 -13 6 -10 0 -12 -4 -5
-12 5 -7 6 -16 2 -20 -4 -5 -2 -5 4 -2 6 3 11 0 11 -8 0 -22 -5 -19 -28 18
-11 17 -18 23 -15 12 7 -27 -8 -54 -17 -30 -5 11 -3 14 6 9 9 -6 9 -5 0 8 -7
8 -11 17 -8 20 3 2 -1 5 -8 5 -8 0 -14 -6 -14 -13 0 -7 3 -11 6 -10 3 2 6 -7
6 -20 0 -13 -1 -24 -3 -24 -6 0 -24 57 -29 90 -8 53 -12 48 -12 -14z"/>
<path d="M5072 828 c7 -15 15 -23 17 -17 2 6 -4 18 -13 27 -15 15 -15 15 -4
-10z"/>
<path d="M5132 828 c7 -15 15 -23 17 -17 2 6 -4 18 -13 27 -15 15 -15 15 -4
-10z"/>
<path d="M5192 828 c7 -15 15 -23 17 -17 2 6 -4 18 -13 27 -15 15 -15 15 -4
-10z"/>
<path d="M4371 824 c0 -11 3 -14 6 -6 3 7 2 16 -1 19 -3 4 -6 -2 -5 -13z"/>
<path d="M4047 696 c-50 -31 -49 -30 -36 -59 l12 -26 52 36 c45 32 51 40 41
55 -14 23 -23 22 -69 -6z"/>
<path d="M1347 581 c-4 -17 -3 -21 5 -13 5 5 8 16 6 23 -3 8 -7 3 -11 -10z"/>
<path d="M1531 569 c-1 -9 7 -23 17 -30 15 -12 16 -12 6 1 -6 8 -14 22 -17 30
-5 13 -6 12 -6 -1z"/>
<path d="M1550 571 c0 -10 19 -25 25 -20 1 2 -3 10 -11 17 -8 7 -14 8 -14 3z"/>
<path d="M811 504 c0 -11 3 -14 6 -6 3 7 2 16 -1 19 -3 4 -6 -2 -5 -13z"/>
</g>
</svg>
